<?xml version="1.0" encoding="UTF-8"?>
<svg width="63px" height="11px" viewBox="0 0 63 11" version="1.1" xmlns="http://www.w3.org/2000/svg" xmlns:xlink="http://www.w3.org/1999/xlink">
    <!-- Generator: Sketch 53.2 (72643) - https://sketchapp.com -->
    <title>ziggy</title>
    <desc>Created with Sketch.</desc>
    <g id="ziggy" stroke="none" stroke-width="1" fill="none" fill-rule="evenodd">
        <g id="noun_zig-zag_924531_000000" transform="translate(-12.145341, 0.000000)" fill="#000000" fill-rule="nonzero">
            <path d="M11.4419339,10.325 C11.8458921,10.625 12.3508399,10.625 12.6538086,10.325 L22.5507852,2.825 L32.4477618,10.325 C32.85172,10.625 33.3566678,10.625 33.6596365,10.325 L43.5566131,2.825 L53.4535897,10.325 C53.6555688,10.425 53.8575479,10.525 54.059527,10.525 C54.2615062,10.525 54.4634853,10.425 54.6654644,10.325 L64.562441,2.825 L74.4594176,10.325 C74.8633758,10.625 75.3683236,10.625 75.6712923,10.325 L86.1742062,2.325 C86.5781645,2.025 86.679154,1.325 86.3761854,0.925 C86.0732167,0.525 85.3662898,0.425 84.9623316,0.725 L75.1663445,8.225 L65.2693679,0.725 C64.8654097,0.425 64.3604619,0.425 64.0574932,0.725 L54.1605166,8.225 L44.26354,0.725 C43.8595818,0.425 43.354634,0.425 43.0516653,0.725 L33.1546887,8.225 L23.2577121,0.725 C22.8537539,0.425 22.3488061,0.425 22.0458374,0.725 L12.1488608,8.225 L2.25188419,0.725 C1.84792596,0.425 1.14099906,0.425 0.838030387,0.925 C0.535061715,1.325 0.535061715,2.025 1.0400095,2.325 L11.4419339,10.325 Z" id="Path"></path>
        </g>
    </g>
</svg>
